<svg width="122" height="76" viewBox="0 0 122 76" fill="none" xmlns="http://www.w3.org/2000/svg">
<path d="M0.967228 57.8714C0.967228 57.0368 0.823504 56.9928 0.497368 56.9928C0.464202 56.9928 0.00262451 57.0117 0.00262451 56.9362C0.00262451 56.8922 0.0358038 56.8607 0.171233 56.8607H2.56197C2.65318 56.8607 2.73886 56.8733 2.73886 56.9362C2.73886 56.9803 2.68082 56.9803 2.64765 56.9803C1.95115 56.9803 1.94286 57.234 1.94286 57.8273V59.4566C1.94286 61.8073 3.49616 61.9979 4.45246 61.9979C4.6791 61.9979 4.89745 61.9665 5.1075 61.9223C6.54196 61.6037 6.84596 60.6245 6.84596 59.3245V55.9696C6.84596 55.5251 6.74648 55.2315 6.09144 55.2315C5.88138 55.2315 5.8731 55.2127 5.8731 55.1749C5.8731 55.1246 5.93113 55.1183 6.05827 55.1183C7.13342 55.1183 7.20801 55.112 8.1229 55.112C8.2417 55.112 8.34125 55.1246 8.34125 55.1812C8.34125 55.1938 8.34125 55.2064 8.32465 55.2189C7.78016 55.2189 7.57012 55.3532 7.57012 55.7285C7.57012 56.6196 7.55352 56.9509 7.55352 59.1735C7.55352 59.6641 7.50377 60.115 7.36007 60.5553C7.00627 61.6056 5.83992 62.3189 4.13738 62.3189C3.82783 62.3189 2.69464 62.2807 1.94563 61.7126C1.49236 61.4129 0.972743 60.8279 0.972743 59.4964V57.8735L0.967228 57.8714ZM4.86981 53.7449C4.86981 54.0573 4.54366 54.3048 4.13185 54.3048C3.72003 54.3048 3.3939 54.0573 3.3939 53.7449C3.3939 53.4325 3.71174 53.1851 4.13185 53.1851C4.55196 53.1851 4.86981 53.445 4.86981 53.7449Z" fill="#927055"/>
<path d="M12.728 60.744C9.94205 60.5721 9.87294 59.0247 9.87294 57.4458V52.9125C9.87294 52.5749 9.88124 52.3715 9.72094 52.2625C9.63799 52.2122 9.20129 52.1933 9.20129 52.122C9.20129 52.078 9.24274 52.0654 9.35329 52.0654H11.4428C11.5257 52.0654 11.6031 52.0654 11.6031 52.122C11.6031 52.1472 11.5617 52.1786 11.5202 52.1786C10.9315 52.1786 10.7905 52.3003 10.7905 52.5917C10.7905 54.1265 10.7739 57.0495 10.7739 58.2216C10.7739 59.1505 10.9425 60.3666 12.7308 60.4631V60.744H12.728Z" fill="#927055"/>
<path d="M16.387 56.2298C18.1171 56.2298 19.8611 56.2865 21.818 56.1858C22.8682 56.1292 23.9821 55.9384 24.5542 55.1919C24.311 55.5546 23.7665 56.5548 22.4398 56.8086C20.693 57.1461 18.6367 56.9176 16.8596 56.9176C15.4003 56.9176 14.0736 56.9741 14.0736 58.3497C14.0736 59.3058 14.7701 60.2473 16.0304 60.4569H24.8085V60.7442H12.7303V60.4569H14.8033C13.8967 60.0942 13.2748 59.3876 13.2748 58.4776C13.2748 57.2425 14.6596 56.2298 16.3897 56.2298" fill="#927055"/>
<path d="M28.0227 60.2849C28.3931 60.4003 28.7773 60.4506 29.1725 60.4506C31.0768 60.4506 31.8424 59.2218 31.8424 58.0371C31.8424 56.4708 30.5848 55.3889 28.8464 55.3889C28.5783 55.3889 28.3019 55.4141 28.0227 55.4728V55.1981C28.3323 55.1478 28.6529 55.1289 28.9708 55.1289C31.4057 55.1289 32.8402 56.3702 32.8402 57.8422C32.8402 57.9051 32.8402 57.9701 32.8319 58.033C32.8319 58.8025 32.807 59.7586 33.7965 60.2241C34.0978 60.3709 34.4598 60.4464 34.7942 60.4589V60.7462C33.6776 60.6833 32.6633 60.2241 32.3178 59.3141C31.613 60.2367 30.2864 60.7399 28.8685 60.7399C28.5838 60.7399 28.3074 60.7211 28.02 60.6833V60.2891L28.0227 60.2849Z" fill="#927055"/>
<path d="M48.2766 60.4569V60.7442C47.2788 60.6813 46.3888 60.3311 45.9521 59.612C45.5237 60.197 44.7526 60.7442 43.8046 60.7442H34.7999V60.4569H43.589C44.8659 60.4569 45.5265 59.2974 45.5265 58.3371C45.5265 57.6871 45.0815 56.9868 44.1666 56.9365C43.6885 56.9238 43.2187 56.9176 42.7488 56.9176C40.9108 56.9176 38.9817 57.0329 37.1768 56.8086C35.8087 56.5485 35.3389 55.5295 35.0625 55.1919C35.6346 55.9363 36.7484 56.1271 37.7987 56.1858C39.6698 56.2885 41.4581 56.2298 43.2297 56.2298C44.8659 56.2298 46.2921 57.2866 46.317 58.5404C46.3335 59.4065 46.7536 60.4004 48.282 60.4569M41.2397 61.8137C41.2397 62.1322 40.9136 62.3732 40.5018 62.3732C40.0899 62.3732 39.7638 62.1322 39.7638 61.8137C39.7638 61.4946 40.0899 61.2537 40.5018 61.2537C40.9136 61.2537 41.2397 61.5013 41.2397 61.8137Z" fill="#927055"/>
<path d="M48.2762 60.4631C50.0479 60.3687 50.2303 59.1588 50.2303 58.2216V56.2422C50.2303 56.1395 50.2303 52.9817 50.222 52.9125C50.222 52.4805 50.2303 52.2751 49.8848 52.2122C49.8019 52.1933 49.3984 52.1996 49.3984 52.122C49.3984 52.0654 49.473 52.0654 49.5587 52.0654H51.6482C51.756 52.0654 51.8002 52.078 51.8002 52.122C51.8002 52.1472 51.7587 52.1786 51.7255 52.1786C51.2059 52.1786 51.1286 52.3254 51.1286 52.7322V56.6343C51.1286 58.4418 51.4989 60.5448 48.2762 60.7419V60.4609V60.4631Z" fill="#927055"/>
<path d="M53.4203 52.6002C53.4037 52.2752 53.2268 52.1934 52.8344 52.1871C52.7763 52.1871 52.7597 52.1683 52.7597 52.1494C52.7597 52.118 52.8178 52.0718 52.9117 52.0718H55.0012C55.0925 52.0718 55.1532 52.1158 55.1532 52.1494C55.1532 52.1683 55.1284 52.1871 55.0786 52.1871C54.6585 52.1934 54.3738 52.2123 54.3489 52.6002C54.2992 53.2439 54.3158 53.8981 54.3323 59.8908C54.3323 60.5848 54.5175 60.6162 55.0786 60.6225C55.1284 60.6288 55.1532 60.6413 55.1532 60.6666C55.1532 60.698 55.0952 60.742 55.0012 60.742H52.9117C52.8205 60.742 52.7597 60.698 52.7597 60.6666C52.7597 60.6413 52.7763 60.6288 52.8344 60.6225C53.3457 60.6099 53.412 60.4443 53.4286 60.069L53.4203 52.6002Z" fill="#927055"/>
<path d="M71.534 60.4567C71.8796 60.4504 72.2141 60.3602 72.524 60.2155C73.4217 59.7899 73.4881 58.9679 73.4881 58.2152V55.8018C73.4881 55.5795 73.538 55.2671 73.0768 55.2671C72.9409 55.2671 72.6648 55.2859 72.6648 55.1916C72.6648 55.1665 72.6648 55.1539 72.698 55.1413C73.4193 55.1413 74.1682 55.1287 74.8981 55.1287C75.133 55.1287 75.133 55.244 74.8815 55.244H74.7733C74.5304 55.2503 74.4031 55.3069 74.4031 55.6654C74.4031 55.7095 74.3865 57.0473 74.3865 57.2003C74.3865 58.8631 74.4695 60.5699 71.5316 60.746H64.6165C62.7202 60.6705 60.8989 59.6263 60.8989 57.8356C60.8989 57.4981 60.9736 57.1668 61.1339 56.8607H62.1674C61.9824 57.2171 61.8914 57.6386 61.8914 58.0516C61.8914 59.2489 62.679 60.4587 64.619 60.4587H71.534V60.4567ZM67.4549 53.7385C67.4549 54.0573 67.129 54.2984 66.717 54.2984C66.305 54.2984 65.9791 54.0573 65.9791 53.7385C65.9791 53.4198 66.3216 53.1787 66.717 53.1787C67.1124 53.1787 67.4549 53.4261 67.4549 53.7385ZM69.2596 53.7385C69.2596 54.0573 68.914 54.2984 68.5217 54.2984C68.1294 54.2984 67.7838 54.0573 67.7838 53.7385C67.7838 53.4198 68.1097 53.1787 68.5217 53.1787C68.9337 53.1787 69.2596 53.4261 69.2596 53.7385Z" fill="#927055"/>
<path d="M78.0017 57.7895C77.9937 57.389 77.9937 57.0074 77.9937 56.6048C77.9937 55.3111 78.0017 54.0446 78.0017 52.753C78.0017 52.428 77.9605 52.1995 77.4052 52.1806C77.3554 52.1806 77.3302 52.168 77.3302 52.1428C77.3302 52.1114 77.3886 52.0674 77.4821 52.0674H79.5721C79.6631 52.0674 79.724 52.1114 79.724 52.1428C79.724 52.168 79.6987 52.1806 79.6489 52.1806C79.0882 52.1995 78.9031 52.2121 78.9031 52.9124C78.9031 54.1033 78.8865 55.2692 78.8865 56.4601C78.8865 56.9131 78.8865 57.3513 78.8945 57.7916H78.0047L78.0017 57.7895ZM78.0349 58.471H78.9C78.9332 59.3495 79.2345 60.465 80.8572 60.465C82.6453 60.465 82.8224 59.1524 82.8224 58.2235C82.8224 56.9382 82.8058 54.659 82.8058 52.7363C82.8058 52.3274 82.7394 52.1827 82.0673 52.1827C82.0095 52.1827 81.8822 52.0674 82.1423 52.0674H84.3836C84.5275 52.0674 84.5441 52.0925 84.5441 52.1239C84.5275 52.1492 84.4943 52.168 84.4445 52.1806C84.4033 52.1932 84.3092 52.1995 84.1764 52.1995C84.0436 52.1995 83.9501 52.2183 83.8917 52.2498C83.7398 52.34 83.7146 52.5308 83.7146 52.7153V52.9124C83.7146 54.6254 83.7066 56.1729 83.7066 58.2235C83.7066 59.1608 83.8837 60.3644 85.6718 60.465V60.746C84.3614 60.6705 83.6402 60.2805 83.2614 59.7269C82.8826 60.2805 82.178 60.746 80.8597 60.746C78.6682 60.746 78.1732 59.6389 78.0404 58.473" fill="#927055"/>
<path d="M89.4659 60.2158C89.7758 60.3688 90.1214 60.4506 90.4639 60.4569V60.7441C89.1542 60.6686 88.4489 60.2787 88.0541 59.7313C87.6754 60.2787 86.9707 60.6665 85.6628 60.7441V60.4569C87.3575 60.3939 87.5924 59.1066 87.609 58.1965V55.802C87.609 55.4895 87.5592 55.2547 87.0894 55.2547C86.9123 55.2547 86.7795 55.2358 86.7795 55.1918C86.7795 55.1415 86.8545 55.1289 86.94 55.1289H89.1898C89.3171 55.1289 89.3503 55.1604 89.3503 55.1918C89.3503 55.2547 89.0736 55.2547 89.0404 55.2547C88.5627 55.2547 88.5208 55.5084 88.5208 55.7265C88.5208 55.7705 88.5208 55.8146 88.5042 58.2154C88.5042 58.9933 88.5706 59.788 89.469 60.2158M88.7975 61.8136C88.7975 62.1321 88.4686 62.3732 88.0597 62.3732C87.6502 62.3732 87.3212 62.1321 87.3212 61.8136C87.3212 61.4945 87.6502 61.2536 88.0597 61.2536C88.4686 61.2536 88.7975 61.5012 88.7975 61.8136Z" fill="#927055"/>
<path d="M90.4642 60.744V60.4568H92.4539C92.446 59.0247 92.4626 52.9754 92.4373 52.5938C92.4128 52.2185 92.1004 52.1807 91.6995 52.1807C91.6417 52.1744 91.6165 52.1618 91.6165 52.1367C91.6165 52.1053 91.6829 52.0654 91.769 52.0654H93.8664C93.958 52.0654 94.0268 52.1095 94.0268 52.143C94.0268 52.1618 94.0022 52.1744 93.9524 52.1807C93.5485 52.1807 93.3554 52.2835 93.3554 52.5938C93.3554 52.7783 93.3388 54.332 93.3388 56.0388C93.883 55.5985 94.5987 55.1414 95.4116 55.1414H99.3721C99.4385 55.1414 99.5073 55.1351 99.8172 55.154C101.696 55.2693 103.109 56.282 103.125 57.8211C103.125 58.9219 103.151 60.2722 105.116 60.4568V60.744C103.974 60.6811 102.985 60.2282 102.639 59.2993C102.001 60.1339 100.834 60.744 99.4581 60.744H90.4697H90.4642ZM95.4085 55.4265C94.0736 55.4265 93.3357 56.5336 93.3357 57.4709C93.3357 58.7499 93.3523 59.9221 93.3523 60.4568H99.3696C101.108 60.4568 102.156 59.4 102.156 58.0434C102.156 56.8335 101.315 55.4265 99.6211 55.4265H95.4085Z" fill="#927055"/>
<path d="M112.279 59.7311C111.835 60.3623 110.853 60.7439 109.886 60.7439C108.584 60.6621 107.896 60.2721 107.52 59.7311C107.141 60.2721 106.436 60.6726 105.113 60.7439V60.4566C105.458 60.4566 105.801 60.3686 106.111 60.2155C107.009 59.7878 107.075 58.9742 107.075 58.2152V55.7766C107.075 55.6487 107.059 55.4328 106.898 55.3237C106.79 55.2608 106.243 55.2734 106.243 55.1895C106.243 55.1581 106.243 55.1266 106.403 55.1266H108.636C108.78 55.1266 108.788 55.1455 108.788 55.1895C108.788 55.2461 108.705 55.2524 108.479 55.2524C108.009 55.2524 107.959 55.4558 107.959 55.634C107.959 55.6592 107.959 56.5189 107.967 58.2131C107.967 59.1629 108.277 60.4545 109.888 60.4545C111.5 60.4545 111.837 59.1881 111.837 58.2131V56.0492C111.837 56.0303 111.837 55.9402 111.829 55.7808C111.82 55.6151 111.804 55.5061 111.771 55.4495C111.737 55.3929 111.688 55.3468 111.619 55.3153C111.392 55.2188 110.964 55.2713 111.014 55.1874C111.014 55.1559 111.005 55.1245 111.166 55.1245H113.399C113.509 55.1245 113.559 55.1434 113.559 55.1874C113.559 55.244 113.451 55.2503 113.249 55.2503C112.854 55.2503 112.746 55.4097 112.746 55.6571C112.746 56.1855 112.73 56.5105 112.73 58.211C112.73 58.9617 112.796 59.7836 113.695 60.2113C114.02 60.3644 114.333 60.4525 114.692 60.4525C116.328 60.4525 116.649 59.2048 116.649 58.211C116.64 56.5818 116.632 55.7347 116.624 55.678C116.624 55.6215 116.583 55.5313 116.497 55.416C116.414 55.3006 116.287 55.244 116.126 55.2503C115.817 55.2566 115.809 55.2189 115.809 55.1748C115.809 55.1497 115.825 55.1371 115.858 55.1371C116.596 55.1371 117.326 55.1245 118.058 55.1245C118.167 55.1245 118.219 55.1434 118.219 55.1874C118.219 55.3216 117.547 55.1182 117.547 55.6592V57.626C117.547 59.1294 117.387 60.7397 114.695 60.7397C113.368 60.7397 112.672 60.2742 112.288 59.727" fill="#927055"/>
<path d="M119.833 52.6002C119.816 52.2752 119.639 52.1934 119.245 52.1871C119.186 52.1871 119.17 52.1683 119.17 52.1494C119.17 52.118 119.228 52.0718 119.321 52.0718H121.411C121.502 52.0718 121.563 52.1158 121.563 52.1494C121.563 52.1683 121.538 52.1871 121.488 52.1871C121.068 52.1934 120.784 52.2123 120.759 52.6002C120.709 53.2439 120.726 53.8981 120.742 59.8908C120.742 60.5848 120.928 60.6162 121.488 60.6225C121.538 60.6288 121.563 60.6413 121.563 60.6666C121.563 60.698 121.505 60.742 121.411 60.742H119.321C119.23 60.742 119.17 60.698 119.17 60.6666C119.17 60.6413 119.186 60.6288 119.245 60.6225C119.756 60.6099 119.824 60.4443 119.841 60.069L119.833 52.6002Z" fill="#927055"/>
<path d="M4.86994 65.2649C5.03301 64.923 5.09104 64.856 5.17673 64.856C5.25411 64.856 5.31215 64.9064 5.48351 65.2353C5.68527 65.6356 7.87703 70.0075 8.73381 71.6117C9.23408 72.5531 9.63763 72.7271 9.92503 72.7862C10.2816 72.8889 10.6271 72.8071 10.6271 72.9178C10.6271 73.0124 10.5608 73.0063 9.73436 73.0063C8.96599 73.0063 7.74433 72.9915 7.74433 72.9036C7.74433 72.8151 7.95714 72.8593 7.95714 72.6767C7.95714 72.6411 7.94614 72.5974 7.91847 72.5445L6.63052 69.9405C6.60285 69.9048 6.57248 69.8821 6.50613 69.8821H3.50459C3.43825 69.8821 3.38849 69.911 3.36086 69.9614L2.5234 71.8362C2.40732 72.0834 2.32994 72.333 2.32994 72.5156C2.32994 72.748 2.58974 72.8507 2.85783 72.8507H3.00156C3.09829 72.8507 3.13699 72.8741 3.13699 72.9159C3.13699 72.9743 3.0513 72.9958 2.92416 72.9958H0.259788C0.0856638 72.9958 0 72.9743 0 72.9159C0 72.8716 0.0580278 72.8507 0.124361 72.8507C1.08619 72.8507 1.38469 72.4947 1.70254 71.8362L4.86717 65.2624L4.86994 65.2649ZM6.32099 69.4959C6.35967 69.4959 6.37897 69.4811 6.37897 69.4664C6.37897 69.4522 6.37903 69.4375 6.36797 69.4227L5.04958 66.5709C5.01088 66.4916 4.97219 66.4534 4.9335 66.4534C4.90586 66.4534 4.86717 66.4891 4.83677 66.5709L3.60408 69.4227C3.59579 69.4375 3.59578 69.4522 3.59578 69.4602C3.59578 69.4898 3.61514 69.4959 3.65383 69.4959H6.31822H6.32099Z" fill="#927055"/>
<path d="M13.1502 70.4084C13.1502 71.7292 13.1778 72.2678 13.3989 72.4296C13.5924 72.5765 14.0623 72.6411 15.0241 72.6411C15.6681 72.6411 16.2153 72.6331 16.5055 72.3644C16.6603 72.2322 16.7543 72.0354 16.804 71.8614C16.8123 71.7962 16.8511 71.744 16.9284 71.744C16.9754 71.744 17.0058 71.7876 17.0058 71.8823C17.0058 71.9764 16.9284 72.5175 16.8317 72.7794C16.746 72.9916 16.6962 73.0211 16.0439 73.0211C15.1679 73.0211 14.4851 73.0125 13.9075 72.9916C13.3492 72.9768 12.9374 72.9682 12.5698 72.9682C12.5117 72.9682 12.31 72.9682 12.0696 72.9768C11.8208 72.9916 11.5499 72.9977 11.3565 72.9977C11.2321 72.9977 11.163 72.9768 11.163 72.9245C11.163 72.895 11.1906 72.8508 11.2597 72.8508C11.3758 72.8508 11.5278 72.8298 11.6356 72.8071C11.8761 72.7628 11.9037 72.595 11.9535 72.333C12.0308 71.9598 12.0308 71.2533 12.0308 70.3851V68.8023C12.0308 67.4016 12.0308 67.1538 12.0004 66.8605C11.9728 66.5543 11.9037 66.4073 11.5002 66.3637C11.3951 66.3551 11.1934 66.3403 11.0773 66.3403C11.0386 66.3403 10.9806 66.3047 10.9806 66.2671C10.9806 66.2167 11.0386 66.1934 11.174 66.1934C11.7324 66.1934 12.5007 66.2149 12.5698 66.2149C12.6278 66.2149 13.5509 66.1934 13.9268 66.1934C14.0512 66.1934 14.1203 66.2149 14.1203 66.2671C14.1203 66.3028 14.0623 66.3323 14.0236 66.3323C13.9379 66.3323 13.7638 66.3403 13.6201 66.3551C13.2552 66.4055 13.1861 66.5438 13.1585 66.8581C13.1502 67.1495 13.1502 67.3973 13.1502 68.7999V70.4041V70.4084Z" fill="#927055"/>
<path d="M20.3669 70.6109C20.3669 72.3264 20.3669 72.9739 19.944 73.7271C19.6566 74.2596 19.0403 74.7564 17.9153 75.3455C17.7329 75.4402 17.5118 75.5576 17.3681 75.616C17.3405 75.6222 17.3101 75.6308 17.2713 75.6308C17.2327 75.6308 17.1746 75.616 17.1746 75.5718C17.1746 75.5072 17.241 75.4777 17.3681 75.4125C17.5422 75.3393 17.7329 75.2096 17.8573 75.1131C18.7611 74.4189 19.195 73.8569 19.195 71.1292V68.072C19.195 66.4155 19.195 66.124 19.1674 65.7803C19.1397 65.4212 19.032 65.254 18.5704 65.1826C18.4543 65.1617 18.2249 65.147 18.1005 65.147C18.0425 65.147 17.9844 65.1322 17.9844 65.0879C17.9844 65.0234 18.0508 65 18.2055 65C18.8302 65 19.7146 65.0357 19.7837 65.0357C19.8528 65.0357 20.7372 65 21.1491 65C21.3038 65 21.3702 65.0234 21.3702 65.0879C21.3702 65.1322 21.3121 65.147 21.2652 65.147C21.1684 65.147 21.0827 65.1617 20.9086 65.1826C20.5327 65.233 20.4277 65.4151 20.3973 65.7803C20.3696 66.124 20.3696 66.4155 20.3696 68.072V70.6109H20.3669Z" fill="#927055"/>
<path d="M26.0438 66.3803C26.1985 66.0802 26.2566 66.0298 26.3312 66.0298C26.4666 66.0298 26.5054 66.154 26.6297 66.3594C26.8508 66.7387 28.8215 70.4521 29.5732 71.8171C30.0154 72.6202 30.3526 72.7358 30.6207 72.8028C30.7949 72.8471 30.9772 72.8532 31.1016 72.8532C31.179 72.8532 31.2564 72.8759 31.2564 72.9264C31.2564 72.9768 31.121 72.9995 30.9773 72.9995C30.7948 72.9995 29.891 72.9995 29.0453 72.9786C28.8048 72.9706 28.6114 72.9706 28.6114 72.9202C28.6114 72.876 28.639 72.8759 28.6971 72.855C28.7634 72.8341 28.8906 72.761 28.8021 72.614L27.7049 70.5486C27.6772 70.5049 27.6578 70.4982 27.5887 70.4982H24.7613C24.7033 70.4982 24.6563 70.5191 24.637 70.572L23.9349 72.0102C23.8188 72.2365 23.7525 72.4548 23.7525 72.6159C23.7525 72.7899 23.9653 72.8575 24.1754 72.8575H24.2804C24.3772 72.8575 24.4048 72.8864 24.4048 72.9307C24.4048 72.9811 24.3384 73.0038 24.2306 73.0038C23.9322 73.0038 23.2605 72.9749 23.1251 72.9749C23.0007 72.9749 22.3844 73.0038 21.8842 73.0038C21.7293 73.0038 21.6437 72.9829 21.6437 72.9307C21.6437 72.8864 21.7017 72.8575 21.7598 72.8575C21.8454 72.8575 22.0196 72.8489 22.1246 72.836C22.6829 72.7862 22.9123 72.4652 23.1527 72.012L26.0382 66.3864L26.0438 66.3803ZM27.4091 70.1231C27.4672 70.1231 27.4672 70.1022 27.4478 70.0579L26.2373 67.5922C26.1709 67.46 26.1018 67.46 26.0355 67.5922L24.8912 70.0579C24.8719 70.1022 24.8912 70.1231 24.9299 70.1231H27.4119H27.4091Z" fill="#927055"/>
<path d="M32.2488 68.8025C32.2488 67.4018 32.2488 67.154 32.2183 66.8607C32.1907 66.5544 32.1216 66.4075 31.7181 66.3638C31.6131 66.3552 31.4114 66.3429 31.2953 66.3429C31.2565 66.3429 31.1985 66.3073 31.1985 66.2691C31.1985 66.2187 31.2565 66.196 31.392 66.196C31.9502 66.196 32.7491 66.2187 32.8154 66.2187C32.9591 66.2187 33.7385 66.196 34.4599 66.196C35.6898 66.196 37.9313 66.108 39.3851 67.2253C40.0015 67.6846 40.5874 68.4372 40.5874 69.509C40.5874 70.641 39.9434 71.5068 39.2607 72.0331C38.7328 72.4488 37.6273 73.0778 35.5378 73.0778C35.0099 73.0778 34.3548 73.0421 33.8269 73.0188C33.288 72.9892 32.8762 72.9683 32.8182 72.9683C32.7905 72.9683 32.5694 72.9769 32.3179 72.9769C32.0691 72.9917 31.7706 72.9979 31.5772 72.9979C31.4528 72.9979 31.3837 72.9769 31.3837 72.9247C31.3837 72.8952 31.4113 72.8509 31.4804 72.8509C31.5965 72.8509 31.7485 72.83 31.8563 72.8072C32.0968 72.763 32.1244 72.5951 32.1741 72.3332C32.2515 71.9599 32.2515 71.2534 32.2515 70.3852V68.8025H32.2488ZM33.3654 69.7728C33.3654 70.7289 33.3654 71.5615 33.3737 71.7293C33.393 71.9556 33.4206 72.2827 33.5174 72.3793C33.6722 72.5471 34.1033 72.7359 35.5461 72.7359C36.6821 72.7359 37.6825 72.4506 38.4232 71.9181C39.0673 71.4649 39.3851 70.6115 39.3851 69.7875C39.3851 68.6426 38.7301 67.9133 38.2326 67.5333C37.0689 66.6448 35.723 66.5274 34.2609 66.5274C34.0204 66.5274 33.6252 66.5563 33.5202 66.592C33.4041 66.6215 33.3654 66.6657 33.3654 66.766V69.7728Z" fill="#927055"/>
<path d="M44.7747 66.3803C44.9295 66.0802 44.9875 66.0298 45.0622 66.0298C45.1976 66.0298 45.2363 66.154 45.3607 66.3594C45.5818 66.7387 47.5524 70.4521 48.3042 71.8171C48.7464 72.6202 49.0836 72.7358 49.3517 72.8028C49.5258 72.8471 49.7083 72.8532 49.8326 72.8532C49.91 72.8532 49.9874 72.8759 49.9874 72.9264C49.9874 72.9768 49.852 72.9995 49.7083 72.9995C49.5258 72.9995 48.6221 72.9995 47.7763 72.9786C47.5359 72.9706 47.3424 72.9706 47.3424 72.9202C47.3424 72.876 47.37 72.8759 47.4281 72.855C47.4944 72.8341 47.6215 72.761 47.5331 72.614L46.4358 70.5486C46.4082 70.5049 46.3889 70.4982 46.3197 70.4982H43.4923C43.4343 70.4982 43.3873 70.5191 43.3679 70.572L42.6659 72.0102C42.5498 72.2365 42.4835 72.4548 42.4835 72.6159C42.4835 72.7899 42.6963 72.8575 42.9064 72.8575H43.0114C43.1081 72.8575 43.1357 72.8864 43.1357 72.9307C43.1357 72.9811 43.0694 73.0038 42.9617 73.0038C42.6631 73.0038 41.9915 72.9749 41.8561 72.9749C41.7317 72.9749 41.1154 73.0038 40.6151 73.0038C40.4603 73.0038 40.3746 72.9829 40.3746 72.9307C40.3746 72.8864 40.4327 72.8575 40.4907 72.8575C40.5764 72.8575 40.7505 72.8489 40.8555 72.836C41.4139 72.7862 41.6433 72.4652 41.8838 72.012L44.7692 66.3864L44.7747 66.3803ZM46.1401 70.1231C46.1981 70.1231 46.1981 70.1022 46.1787 70.0579L44.9682 67.5922C44.9019 67.46 44.8328 67.46 44.7664 67.5922L43.6222 70.0579C43.6029 70.1022 43.6222 70.1231 43.6609 70.1231H46.1428H46.1401Z" fill="#927055"/>
<path d="M52.8451 66.3803C52.9999 66.0802 53.058 66.0298 53.1326 66.0298C53.268 66.0298 53.3067 66.154 53.4311 66.3594C53.6522 66.7387 55.6228 70.4521 56.3746 71.8171C56.8168 72.6202 57.154 72.7358 57.4221 72.8028C57.5962 72.8471 57.7786 72.8532 57.903 72.8532C57.9804 72.8532 58.0578 72.8759 58.0578 72.9264C58.0578 72.9768 57.9223 72.9995 57.7786 72.9995C57.5962 72.9995 56.6924 72.9995 55.8467 72.9786C55.6062 72.9706 55.4128 72.9706 55.4128 72.9202C55.4128 72.876 55.4404 72.8759 55.4984 72.855C55.5648 72.8341 55.6919 72.761 55.6035 72.614L54.5062 70.5486C54.4786 70.5049 54.4592 70.4982 54.3901 70.4982H51.5627C51.5046 70.4982 51.4576 70.5191 51.4383 70.572L50.7363 72.0102C50.6202 72.2365 50.5539 72.4548 50.5539 72.6159C50.5539 72.7899 50.7667 72.8575 50.9767 72.8575H51.0818C51.1785 72.8575 51.2062 72.8864 51.2062 72.9307C51.2062 72.9811 51.1398 73.0038 51.032 73.0038C50.7335 73.0038 50.0619 72.9749 49.9265 72.9749C49.8021 72.9749 49.1858 73.0038 48.6855 73.0038C48.5307 73.0038 48.4451 72.9829 48.4451 72.9307C48.4451 72.8864 48.5031 72.8575 48.5611 72.8575C48.6468 72.8575 48.8209 72.8489 48.926 72.836C49.4842 72.7862 49.7136 72.4652 49.9541 72.012L52.8396 66.3864L52.8451 66.3803ZM54.2104 70.1231C54.2685 70.1231 54.2685 70.1022 54.2492 70.0579L53.0386 67.5922C52.9722 67.46 52.9032 67.46 52.8368 67.5922L51.6926 70.0579C51.6732 70.1022 51.6926 70.1231 51.7313 70.1231H54.2132H54.2104Z" fill="#927055"/>
<path d="M59.5614 71.7736C59.5891 72.5176 59.7052 72.7359 60.0423 72.8029C60.2634 72.8466 60.5426 72.8534 60.6476 72.8534C60.7057 72.8534 60.7527 72.8823 60.7527 72.9265C60.7527 72.977 60.667 72.9997 60.5205 72.9997C59.8295 72.9997 59.3376 72.9708 59.2325 72.9708C59.1164 72.9708 58.5969 72.9997 58.0385 72.9997C57.9142 72.9997 57.8451 72.9936 57.8451 72.9265C57.8451 72.8823 57.8838 72.8534 57.9418 72.8534C58.0385 72.8534 58.268 72.8466 58.4421 72.8029C58.7489 72.7378 58.7986 72.4967 58.7986 71.6789V66.5274C58.7986 66.1683 58.8649 66.0742 58.9617 66.0742C59.1054 66.0742 59.3072 66.2482 59.4343 66.3448C59.6361 66.4979 61.416 67.9361 63.309 69.4167C64.5308 70.3643 65.838 71.4379 66.2143 71.7293L66.0895 67.2277C66.0815 66.6448 66.004 66.4388 65.6284 66.389C65.407 66.3595 65.1278 66.3448 65.0313 66.3448C64.9452 66.3448 64.9341 66.2943 64.9341 66.2648C64.9341 66.2064 65.0313 66.2003 65.1635 66.2003C65.7218 66.2003 66.3078 66.223 66.4517 66.223C66.587 66.223 66.9909 66.2003 67.4908 66.2003C67.6151 66.2003 67.7233 66.2083 67.7233 66.2648C67.7233 66.2943 67.6649 66.3448 67.5794 66.3448C67.5216 66.3448 67.4244 66.3448 67.2922 66.3675C66.8883 66.4327 66.8581 66.6153 66.8581 67.1564L66.8305 72.4236C66.8305 73.0145 66.8108 73.0649 66.7339 73.0649C66.6091 73.0649 66.4849 72.9917 65.7993 72.5176C65.664 72.4297 63.895 71.1108 62.5963 70.0814C61.181 68.9513 59.7991 67.8482 59.4233 67.5358L59.5587 71.7755L59.5614 71.7736Z" fill="#927055"/>
<path d="M72.0294 72.8676C71.8357 72.7876 71.8278 72.7501 71.8278 72.4587C71.8278 71.9323 71.8745 71.5105 71.8942 71.3427C71.9052 71.2258 71.9329 71.1754 71.9987 71.1754C72.0848 71.1754 72.1038 71.2043 72.1038 71.2842C72.1038 71.3869 72.1038 71.5314 72.1426 71.6784C72.3553 72.4587 73.2678 72.7581 74.2018 72.7581C75.5478 72.7581 76.2027 72.0289 76.2027 71.3494C76.2027 70.6195 75.7993 70.1959 74.5972 69.4451L73.9725 69.0596C72.4912 68.1329 72.1536 67.4762 72.1536 66.7617C72.1536 65.6316 73.2703 64.8574 75.0393 64.8574C75.5866 64.8574 75.993 64.9017 76.338 64.9601C76.6061 65.0044 76.7143 65.0191 76.8274 65.0191C76.9406 65.0191 76.9713 65.04 76.9713 65.0923C76.9713 65.1446 76.9129 65.4926 76.9129 66.2077C76.9129 66.3817 76.8852 66.4555 76.8163 66.4555C76.7309 66.4555 76.7112 66.4051 76.7001 66.3172C76.6921 66.193 76.6036 65.9015 76.5181 65.7841C76.432 65.6752 76.0563 65.2288 74.7768 65.2288C73.8151 65.2288 73.0655 65.6814 73.0655 66.4555C73.0655 67.0532 73.4222 67.4406 74.7571 68.227L75.1525 68.4601C76.7973 69.4451 77.192 70.1018 77.192 70.9485C77.192 71.3869 76.9713 72.19 76.0096 72.7059C75.4039 73.0207 74.6526 73.1504 73.903 73.1504C73.2402 73.1504 72.6044 73.0772 72.0294 72.8651" fill="#927055"/>
<path d="M82.7062 70.3846C82.7062 71.2528 82.7062 71.9612 82.764 72.3326C82.8028 72.5945 82.8612 72.7624 83.2338 72.8066C83.4084 72.8276 83.6876 72.8503 83.7921 72.8503C83.8782 72.8503 83.8893 72.8946 83.8893 72.9241C83.8893 72.9677 83.8419 72.9973 83.6956 72.9973C83.021 72.9973 82.2444 72.9677 82.1756 72.9677C82.1172 72.9677 81.2717 72.9973 80.9071 72.9973C80.7712 72.9973 80.7134 72.9764 80.7134 72.9241C80.7134 72.8946 80.741 72.8651 80.8099 72.8651C80.9261 72.8651 81.0589 72.8442 81.1751 72.8214C81.4236 72.7771 81.493 72.5945 81.5318 72.3326C81.5896 71.9612 81.5896 71.2528 81.5896 70.3846V66.6123L79.8205 66.627C79.0525 66.6418 78.7623 66.707 78.5797 66.9185C78.4358 67.0716 78.4247 67.1368 78.386 67.2038C78.3583 67.277 78.3085 67.2837 78.2618 67.2837C78.2317 67.2837 78.1763 67.2604 78.1763 67.2099C78.1763 67.1159 78.4278 66.3128 78.4358 66.239C78.4635 66.1892 78.5219 66.0718 78.56 66.0718C78.6461 66.0718 78.7734 66.1449 79.1073 66.1745C79.4528 66.2034 79.9337 66.2181 80.0696 66.2181H84.696C85.1104 66.2181 85.3896 66.1954 85.5808 66.1745C85.7628 66.1511 85.868 66.1302 85.9258 66.1302C85.9842 66.1302 85.9842 66.1892 85.9842 66.239C85.9842 66.5163 85.9454 67.1577 85.9454 67.2604C85.9454 67.3403 85.887 67.3778 85.8292 67.3778C85.7714 67.3778 85.7438 67.3483 85.7327 67.2247L85.713 67.1306C85.6743 66.8539 85.4062 66.6479 84.2397 66.627L82.7007 66.6123V70.3846H82.7062Z" fill="#927055"/>
<path d="M89.7484 66.3803C89.9034 66.0802 89.9612 66.0298 90.0356 66.0298C90.1715 66.0298 90.2071 66.154 90.3344 66.3594C90.5551 66.7387 92.5259 70.4521 93.2779 71.8171C93.72 72.6202 94.0575 72.7358 94.3256 72.8028C94.4997 72.8471 94.6817 72.8532 94.8065 72.8532C94.8833 72.8532 94.9608 72.8759 94.9608 72.9264C94.9608 72.9768 94.8255 72.9995 94.6817 72.9995C94.4996 72.9995 93.5958 72.9995 92.7497 72.9786C92.5093 72.9706 92.3162 72.9706 92.3162 72.9202C92.3162 72.876 92.3439 72.8759 92.4017 72.855C92.4681 72.8341 92.5923 72.761 92.5068 72.614L91.4092 70.5486C91.3816 70.5049 91.3625 70.4982 91.2936 70.4982H88.4658C88.408 70.4982 88.3606 70.5191 88.3415 70.572L87.6393 72.0102C87.5231 72.2365 87.4573 72.4548 87.4573 72.6159C87.4573 72.7899 87.6701 72.8575 87.8798 72.8575H87.9849C88.0815 72.8575 88.1091 72.8864 88.1091 72.9307C88.1091 72.9811 88.0433 73.0038 87.9351 73.0038C87.6369 73.0038 86.9624 72.9749 86.8295 72.9749C86.7053 72.9749 86.0892 73.0038 85.5887 73.0038C85.4337 73.0038 85.3483 72.9829 85.3483 72.9307C85.3483 72.8864 85.4061 72.8575 85.4645 72.8575C85.55 72.8575 85.724 72.8489 85.8291 72.836C86.3874 72.7862 86.6168 72.4652 86.8572 72.012L89.7429 66.3864L89.7484 66.3803ZM91.1135 70.1231C91.1719 70.1231 91.1719 70.1022 91.1522 70.0579L89.939 67.5922C89.8726 67.46 89.8037 67.46 89.7373 67.5922L88.593 70.0579C88.574 70.1022 88.593 70.1231 88.6318 70.1231H91.1135Z" fill="#927055"/>
<path d="M95.956 68.8023C95.956 67.4016 95.956 67.1538 95.9259 66.8605C95.8982 66.5543 95.8293 66.3864 95.4253 66.3428C95.3208 66.3341 95.1191 66.3194 95.0029 66.3194C94.9642 66.3194 94.9058 66.3046 94.9058 66.269C94.9058 66.2186 94.9642 66.1958 95.0995 66.1958C95.6578 66.1958 96.4565 66.2186 96.5229 66.2186C96.8211 66.2186 97.3881 66.1958 97.9655 66.1958C100.014 66.1958 100.544 67.0929 100.544 67.5756C100.544 68.2821 99.9282 68.7285 99.3034 69.1522C100.237 69.3637 101.456 70.0056 101.456 71.0202C101.456 72.0354 100.475 73.0186 98.3774 73.0186C98.1561 73.0186 97.7029 73.0106 97.3186 72.9891C96.9238 72.9749 96.5783 72.9663 96.5198 72.9663C96.4928 72.9663 96.2684 72.9749 96.0199 72.9749C95.7709 72.9891 95.4727 72.9958 95.279 72.9958C95.1548 72.9958 95.0859 72.9749 95.0859 72.9221C95.0859 72.8932 95.1161 72.8716 95.1825 72.8716C95.2987 72.8716 95.4506 72.8427 95.5582 72.828C95.7986 72.7985 95.8263 72.5949 95.8761 72.3312C95.9535 71.9598 95.9535 71.2508 95.9535 70.3832V68.7999L95.956 68.8023ZM97.0148 68.9905C97.0148 69.0556 97.0425 69.0704 97.1003 69.0852C97.1667 69.0938 97.3881 69.1294 97.8523 69.1294C98.5348 69.1294 98.8029 69.1061 99.0544 68.8964C99.3145 68.6701 99.5242 68.3639 99.5242 67.9341C99.5242 67.2485 99.0243 66.483 97.7945 66.483C97.6586 66.483 97.3604 66.4977 97.1698 66.5272C97.0536 66.5481 97.0148 66.5709 97.0148 66.6213V68.9929V68.9905ZM97.0148 69.9823C97.0148 70.6826 97.0148 71.763 97.0234 71.9013C97.0726 72.3312 97.0726 72.4418 97.4459 72.5722C97.7834 72.6896 98.292 72.7044 98.5238 72.7044C99.3311 72.7044 100.323 72.4714 100.323 71.3184C100.323 70.9175 100.11 70.144 99.1516 69.6767C98.7285 69.4793 98.3442 69.4879 98.046 69.4436C97.8911 69.4209 97.2774 69.4209 97.0837 69.4209C97.0456 69.4209 97.0179 69.4436 97.0179 69.4855V69.9823H97.0148Z" fill="#927055"/>
<path d="M105.411 70.4084C105.411 71.7292 105.439 72.2678 105.66 72.4296C105.854 72.5765 106.323 72.6411 107.285 72.6411C107.929 72.6411 108.479 72.6331 108.766 72.3644C108.921 72.2322 109.015 72.0354 109.065 71.8614C109.076 71.7962 109.112 71.744 109.189 71.744C109.236 71.744 109.267 71.7876 109.267 71.8823C109.267 71.9764 109.189 72.5175 109.093 72.7794C109.007 72.9916 108.957 73.0211 108.305 73.0211C107.429 73.0211 106.746 73.0125 106.169 72.9916C105.61 72.9768 105.196 72.9682 104.831 72.9682C104.773 72.9682 104.571 72.9682 104.331 72.9768C104.079 72.9916 103.811 72.9977 103.617 72.9977C103.493 72.9977 103.424 72.9768 103.424 72.9245C103.424 72.895 103.451 72.8508 103.521 72.8508C103.637 72.8508 103.789 72.8298 103.896 72.8071C104.137 72.7628 104.165 72.595 104.214 72.333C104.292 71.9598 104.292 71.2533 104.292 70.3851V68.8023C104.292 67.4016 104.292 67.1538 104.261 66.8605C104.234 66.5543 104.165 66.4073 103.761 66.3637C103.656 66.3551 103.454 66.3403 103.338 66.3403C103.299 66.3403 103.242 66.3047 103.242 66.2671C103.242 66.2167 103.299 66.1934 103.435 66.1934C103.993 66.1934 104.762 66.2149 104.831 66.2149C104.889 66.2149 105.812 66.1934 106.188 66.1934C106.312 66.1934 106.381 66.2149 106.381 66.2671C106.381 66.3028 106.323 66.3323 106.285 66.3323C106.199 66.3323 106.025 66.3403 105.881 66.3551C105.516 66.4055 105.447 66.5438 105.42 66.8581C105.411 67.1495 105.411 67.3973 105.411 68.7999V70.4041V70.4084Z" fill="#927055"/>
<path d="M111.135 68.8023C111.135 67.4015 111.135 67.1537 111.108 66.8604C111.077 66.5542 111.011 66.4073 110.608 66.3636C110.502 66.355 110.301 66.3402 110.185 66.3402C110.146 66.3402 110.088 66.3046 110.088 66.2671C110.088 66.2167 110.146 66.1933 110.282 66.1933C110.84 66.1933 111.639 66.2148 111.705 66.2148C111.791 66.2148 114.358 66.221 114.638 66.2148C114.869 66.2001 115.099 66.1705 115.195 66.1644C115.243 66.1496 115.3 66.1201 115.359 66.1201C115.398 66.1201 115.417 66.1644 115.417 66.2001C115.417 66.2646 115.35 66.3741 115.32 66.6237C115.3 66.7116 115.273 67.1119 115.243 67.2208C115.234 67.2564 115.195 67.3155 115.137 67.3155C115.071 67.3155 115.041 67.2712 115.041 67.198C115.041 67.1328 115.021 66.9859 114.963 66.877C114.886 66.7301 114.762 66.6655 114.087 66.6065C113.877 66.5856 112.454 66.5708 112.318 66.5708C112.26 66.5708 112.252 66.6065 112.252 66.6655V69.1103C112.252 69.1773 112.252 69.2044 112.318 69.2044C112.473 69.2044 114.087 69.2044 114.366 69.1835C114.665 69.1607 114.839 69.154 114.963 69.0599C115.049 68.9929 115.107 68.9425 115.146 68.9425C115.193 68.9425 115.223 68.9658 115.223 69.0156C115.223 69.066 115.146 69.2192 115.118 69.5131C115.099 69.6951 115.071 70.0308 115.071 70.096C115.071 70.1692 115.043 70.2632 114.955 70.2632C114.897 70.2632 114.869 70.2343 114.869 70.1839C114.869 70.096 114.869 70.0013 114.82 69.8838C114.773 69.7603 114.665 69.6514 114.184 69.6072C113.847 69.5776 112.54 69.5715 112.327 69.5715C112.26 69.5715 112.249 69.601 112.249 69.6305V70.3807C112.249 70.6869 112.23 71.7377 112.249 71.9136C112.279 72.5199 112.498 72.6373 113.712 72.6373C114.029 72.6373 114.615 72.6367 114.941 72.5426C115.259 72.4399 115.422 72.2807 115.5 71.9154C115.519 71.8128 115.546 71.7839 115.624 71.7839C115.69 71.7839 115.701 71.857 115.701 71.9154C115.701 71.9806 115.605 72.5949 115.538 72.7837C115.453 73.0167 115.326 73.0167 114.856 73.0167C113.932 73.0167 113.22 72.9958 112.722 72.9872C112.202 72.9638 111.885 72.9638 111.702 72.9638C111.674 72.9638 111.442 72.9638 111.174 72.9724C110.933 72.9872 110.654 72.9933 110.464 72.9933C110.339 72.9933 110.271 72.9724 110.271 72.9202C110.271 72.8907 110.298 72.847 110.367 72.847C110.483 72.847 110.635 72.8175 110.743 72.8027C110.983 72.7732 111.011 72.5906 111.061 72.3286C111.138 71.9554 111.138 71.2489 111.138 70.3807V68.798L111.135 68.8023Z" fill="#927055"/>
<path d="M117.122 72.8738C116.959 72.8086 116.948 72.7791 116.948 72.5381C116.948 72.0935 116.995 71.7289 117.014 71.5819C117.014 71.4878 117.042 71.4356 117.111 71.4356C117.18 71.4356 117.227 71.4645 117.227 71.5382C117.227 71.6114 117.227 71.7412 117.265 71.8672C117.459 72.5233 118.382 72.7563 119.197 72.7563C120.419 72.7563 121.044 72.2386 121.044 71.5591C121.044 70.9172 120.582 70.611 119.496 69.9967L118.938 69.6764C117.611 68.9256 117.177 68.3783 117.177 67.7493C117.177 66.6905 118.282 66.0571 119.9 66.0571C120.388 66.0571 120.87 66.1076 121.168 66.166C121.409 66.2016 121.505 66.2016 121.602 66.2016C121.699 66.2016 121.726 66.2164 121.726 66.2668C121.726 66.3105 121.669 66.6105 121.669 67.223C121.669 67.3613 121.66 67.4197 121.571 67.4197C121.484 67.4197 121.475 67.3761 121.456 67.3023C121.445 67.1996 121.351 66.9524 121.281 66.8577C121.196 66.755 120.792 66.4138 119.684 66.4138C118.791 66.4138 118.059 66.7575 118.059 67.3908C118.059 67.959 118.435 68.2879 119.645 68.9151L119.991 69.0891C121.48 69.8627 122 70.4899 122 71.2634C122 71.7897 121.732 72.3579 120.856 72.7963C120.336 73.0521 119.576 73.1105 118.905 73.1105C118.338 73.1105 117.625 73.0521 117.117 72.8695" fill="#927055"/>
<path d="M68.124 14.558C68.0244 15.4449 68.1572 16.3319 68.5384 17.1371C68.6294 17.3384 68.7456 17.5334 68.8699 17.7221C69.0027 17.9087 69.1466 18.089 69.3064 18.2589C69.6243 18.6006 70.0117 18.9026 70.4452 19.1605C70.8762 19.4205 71.3546 19.6365 71.8631 19.8084C72.3692 19.9845 72.8912 20.1145 73.4305 20.1816C73.9667 20.2487 74.5139 20.2508 75.0636 20.1984C75.614 20.1501 76.1667 20.0495 76.733 19.9425C77.3 19.8377 77.8829 19.7245 78.4879 19.6574C79.0936 19.5882 79.7239 19.5673 80.3486 19.6176C80.6634 19.6448 80.9616 19.6826 81.2574 19.7287C81.5562 19.7748 81.852 19.8293 82.1478 19.8943C82.7362 20.0222 83.3167 20.2109 83.8504 20.429C84.1154 20.536 84.37 20.6492 84.6104 20.7394C84.8533 20.8316 85.0857 20.8987 85.3286 20.9406C85.5721 20.9805 85.8291 20.9973 86.0892 20.9931C86.3407 20.9889 86.5922 20.9595 86.8326 20.905C87.3134 20.796 87.758 20.5863 88.1368 20.3137C88.5186 20.0411 88.8359 19.7056 89.0874 19.345C89.3395 18.9823 89.527 18.5902 89.6457 18.1897C89.7619 17.7913 89.8093 17.3782 89.7373 16.9966C89.7041 16.8058 89.6346 16.6276 89.5356 16.4766C89.4305 16.3235 89.3087 16.2208 89.1181 16.1264C88.7369 15.9377 88.1866 15.8392 87.6338 15.7616C86.5147 15.6085 85.3064 15.512 84.1351 15.208C83.5491 15.0592 82.9766 14.8579 82.449 14.5915C81.9209 14.3274 81.4486 13.9961 81.0532 13.6228C80.854 13.4362 80.6769 13.2392 80.5171 13.0358C80.4365 12.933 80.3621 12.8303 80.2902 12.7254L80.0916 12.4172C79.8345 12.0062 79.6046 11.5869 79.3918 11.1654C78.9663 10.3246 78.6294 9.47119 78.1786 8.68284C77.7335 7.89234 77.1309 7.17944 76.2965 6.62376C75.4701 6.06182 74.4666 5.64246 73.4163 5.30698L72.9275 5.16859L73.2897 4.85197C73.5824 4.59616 73.8259 4.3089 74.022 4.00277C74.2182 3.69454 74.3645 3.36954 74.4776 3.03615C74.5883 2.70066 74.6633 2.35889 74.699 2.01711C74.7181 1.84518 74.7267 1.67534 74.7267 1.5076C74.7267 1.42372 74.7211 1.33985 74.7125 1.26227C74.7045 1.18678 74.6904 1.10082 74.6769 1.06936L75.7271 1.31049C75.1386 1.75501 74.5028 2.16389 73.8228 2.52244C73.1458 2.88309 72.4301 3.1976 71.6971 3.47647C70.2355 4.03632 68.7204 4.44939 67.2478 4.88133C65.7745 5.31117 64.3344 5.76407 62.9774 6.32603C62.2949 6.60279 61.6394 6.91104 61.004 7.24234C60.3655 7.57149 59.7603 7.93427 59.1771 8.31587C58.0135 9.08331 56.9383 9.94299 55.9876 10.8635C55.0644 11.763 54.3707 12.8114 53.9036 13.908C53.4338 15.0067 53.1905 16.162 53.1905 17.3153C53.1905 18.4685 53.4393 19.6218 53.9257 20.7142C54.4094 21.8087 55.1446 22.8341 56.0512 23.7692C56.9798 24.7128 58.0163 25.6102 59.0748 26.5013C61.1975 28.2773 63.3838 30.0554 65.2851 32.0264C66.2332 33.0119 67.1094 34.0435 67.8584 35.1317C68.6048 36.22 69.2296 37.3606 69.6772 38.5432C69.901 39.1345 70.0775 39.7363 70.2023 40.3423C70.3185 40.9503 70.4009 41.5626 70.4175 42.1749C70.4618 43.3994 70.2989 44.6218 69.9201 45.7981C69.9312 44.5862 69.8844 43.391 69.7018 42.2126C69.6077 41.6234 69.4921 41.0384 69.3286 40.4618C69.1712 39.8831 68.9805 39.3128 68.7567 38.7487C68.3091 37.6206 67.6923 36.5324 66.9545 35.4924C66.2166 34.4524 65.3515 33.4627 64.4144 32.5128C62.5353 30.609 60.3407 28.8875 58.1987 27.0989C57.1291 26.2036 56.0649 25.2936 55.0893 24.3102C54.1081 23.308 53.3038 22.1987 52.7704 21.0077C52.2342 19.821 51.9634 18.565 51.9634 17.3111C51.9634 16.0573 52.2232 14.8055 52.7317 13.6145C53.2403 12.4235 53.9893 11.2849 55.0147 10.2806C56.0207 9.30762 57.1374 8.4102 58.37 7.5967C58.9864 7.19407 59.6304 6.80829 60.3047 6.4602C60.9764 6.10795 61.6726 5.78295 62.3889 5.4894C63.8173 4.896 65.3183 4.42633 66.8051 3.99019C68.2925 3.55196 69.7682 3.14518 71.1419 2.61889C72.5155 2.09679 73.776 1.44259 74.8539 0.63323L75.6994 0L75.9011 0.874359C75.9318 1.02323 75.9288 1.12178 75.9288 1.22872C75.9288 1.33356 75.9208 1.4342 75.9097 1.53276C75.8876 1.73195 75.8544 1.92485 75.8126 2.11776C75.7271 2.50147 75.5998 2.87889 75.4313 3.24583C75.2628 3.61276 75.0526 3.97132 74.7875 4.3089C74.525 4.64648 74.204 4.961 73.8259 5.23569L73.6986 4.78068C74.8066 5.11617 75.9042 5.53972 76.8382 6.1562C77.7808 6.76426 78.483 7.57991 78.9663 8.41444C79.4613 9.25105 79.8093 10.1002 80.2379 10.9138C80.4507 11.3206 80.6769 11.719 80.926 12.109C81.0532 12.3061 81.175 12.4948 81.3158 12.6688C81.4566 12.847 81.6116 13.0148 81.78 13.1741C82.4546 13.8157 83.3886 14.2666 84.4388 14.5266C85.4921 14.797 86.6278 14.8893 87.8109 15.0466C88.1066 15.0885 88.4079 15.1346 88.7148 15.2059C89.0216 15.2751 89.3364 15.3653 89.6402 15.5142C89.7927 15.5875 89.9359 15.6777 90.0687 15.7868C90.1985 15.8958 90.3012 16.0153 90.3866 16.1369C90.5527 16.3822 90.6412 16.638 90.6879 16.8854C90.7789 17.3866 90.7187 17.8709 90.5883 18.3386C90.453 18.8061 90.2317 19.2549 89.9359 19.6763C89.6377 20.0977 89.262 20.4919 88.7922 20.8274C88.3218 21.1629 87.7445 21.4355 87.1031 21.5781C86.7828 21.6494 86.4483 21.6871 86.1138 21.6913C85.7879 21.6955 85.4589 21.6745 85.13 21.6179C84.801 21.5613 84.4856 21.4648 84.2064 21.3579C83.9248 21.251 83.6733 21.1378 83.4218 21.035C82.9268 20.8295 82.4269 20.6681 81.8907 20.5443C81.6251 20.4835 81.3515 20.4311 81.0778 20.385C80.8018 20.3388 80.5226 20.3011 80.257 20.2759C79.7153 20.2298 79.168 20.2403 78.6183 20.2991C78.0655 20.3556 77.5096 20.4563 76.9378 20.559C76.3653 20.6597 75.7769 20.7645 75.1632 20.8127C74.5527 20.8652 73.9169 20.8589 73.2977 20.7771C72.0593 20.6052 70.9316 20.1837 69.9754 19.584C69.5001 19.2821 69.0937 18.9151 68.7647 18.5188C68.4333 18.1204 68.2064 17.6822 68.0521 17.2356C67.7674 16.3382 67.7895 15.4009 68.1295 14.5433" fill="#927055"/>
<path d="M64.5417 5.04945C63.8783 5.28429 63.1902 5.46881 62.5046 5.64914C62.1621 5.73721 61.8196 5.82736 61.4739 5.91333L60.4457 6.17125C59.0749 6.513 57.7206 6.87997 56.4133 7.32656C53.8042 8.21563 51.3664 9.40027 49.4013 10.9499C48.4201 11.7215 47.5551 12.5769 46.8281 13.4932C46.1012 14.4116 45.5098 15.3908 45.0399 16.4036C44.8077 16.911 44.606 17.4268 44.4291 17.9468C44.2605 18.4689 44.1113 18.9952 43.9924 19.5257C43.752 20.5867 43.6331 21.6623 43.5198 22.7569C43.2876 24.9375 43.1411 27.1391 42.8675 29.3429C42.7321 30.4437 42.5552 31.5466 42.323 32.6432C42.2069 33.1926 42.077 33.7398 41.9223 34.285C41.7647 34.8302 41.5906 35.3711 41.3916 35.91C40.9908 36.9857 40.5154 38.0509 39.8853 39.0657C39.573 39.5752 39.2275 40.0721 38.8461 40.5544C38.4619 41.0345 38.039 41.5001 37.583 41.9404C36.6682 42.8252 35.593 43.6136 34.3963 44.2615C33.7993 44.5887 33.1691 44.8759 32.5223 45.1317C31.8756 45.3875 31.2067 45.6119 30.5213 45.7964C31.168 45.5448 31.7982 45.2743 32.4007 44.9744C33.0032 44.6746 33.5754 44.3454 34.1226 43.9952C35.2116 43.2908 36.1679 42.4835 36.9749 41.5987C38.5918 39.8248 39.631 37.7887 40.3248 35.6941C40.4988 35.1699 40.6481 34.6393 40.7835 34.1068C40.9218 33.5742 41.0461 33.0395 41.1511 32.5027C41.3639 31.4271 41.5215 30.3431 41.6569 29.2548C41.9278 27.0784 42.0549 24.8851 42.2733 22.6814C42.3341 22.1299 42.3922 21.5805 42.4833 21.0249C42.5662 20.4692 42.6851 19.9157 42.8205 19.3642C42.9587 18.8128 43.1273 18.2655 43.318 17.7225C43.517 17.1815 43.7409 16.6447 43.9979 16.1163C44.5175 15.0616 45.1643 14.0405 45.9548 13.0844C46.748 12.1303 47.6794 11.2412 48.7352 10.4487C49.791 9.65613 50.9629 8.95786 52.2094 8.35607C53.4587 7.75643 54.7826 7.25948 56.1369 6.83594C57.4939 6.41659 58.8841 6.0643 60.2882 5.77285C61.6948 5.4793 63.1158 5.26752 64.5417 5.04736" fill="#927055"/>
<path d="M60.9595 23.7969C60.9982 24.0736 61.106 24.3357 61.2552 24.5831C61.4017 24.8306 61.5869 25.0633 61.7886 25.2877C62.192 25.7343 62.6618 26.1494 63.1543 26.5478C63.6431 26.9483 64.1516 27.3383 64.6712 27.7199C65.1939 28.1016 65.7134 28.4874 66.241 28.8648C68.3556 30.3808 70.4647 31.9303 72.3801 33.6308C73.3331 34.4842 74.2456 35.3669 75.069 36.3042C75.8898 37.2394 76.6388 38.2186 77.2389 39.2523C77.5402 39.7681 77.8218 40.2902 78.0487 40.8291C78.275 41.3658 78.4656 41.9111 78.6126 42.4625C78.8973 43.5675 78.9938 44.6956 78.861 45.8027C78.5984 43.5885 77.7001 41.4917 76.3596 39.5773C75.0192 37.6608 73.2919 35.9121 71.4264 34.2494C69.5577 32.5845 67.5268 31.014 65.545 29.3848C64.5525 28.5712 63.5712 27.7388 62.6814 26.8456C62.4632 26.6191 62.2473 26.3906 62.0487 26.1536C61.8464 25.9188 61.6533 25.6756 61.4904 25.4218C61.3243 25.1681 61.1778 24.9082 61.0756 24.6335C60.9789 24.3609 60.9236 24.0757 60.9567 23.799" fill="#927055"/>
<path d="M68.1239 16.1431C67.6486 16.1892 67.1616 16.2794 66.6974 16.3989C66.2307 16.5142 65.7824 16.6673 65.3514 16.8392C64.9259 17.0175 64.5115 17.2145 64.1407 17.4494C63.765 17.68 63.4139 17.9359 63.1071 18.221C62.7892 18.4999 62.5211 18.8123 62.2837 19.1373C62.0402 19.4623 61.8386 19.8083 61.6701 20.1668C61.3273 20.884 61.1256 21.6514 60.9625 22.4377C60.8105 21.6514 60.8244 20.8336 61.0482 20.0347C61.2666 19.2359 61.7113 18.4537 62.3747 17.7807C62.7148 17.4494 63.0991 17.1412 63.5277 16.8749C63.9611 16.6128 64.4254 16.38 64.9259 16.2018C65.4209 16.0194 65.9429 15.881 66.4791 15.7887C67.0153 15.7028 67.5625 15.6482 68.1239 15.6881V16.141V16.1431Z" fill="#927055"/>
</svg>
