<svg width="94" height="91" viewBox="0 0 94 91" fill="none" xmlns="http://www.w3.org/2000/svg">
<path d="M58.4612 28.9239C58.3065 30.686 58.5128 32.4482 59.1058 34.0479C59.2476 34.4478 59.4281 34.8353 59.6214 35.2102C59.8277 35.581 60.0511 35.9392 60.3003 36.2767C60.7945 36.9557 61.3961 37.5556 62.0707 38.068C62.7411 38.5846 63.4845 39.0137 64.2751 39.3553C65.0615 39.7052 65.8736 39.9635 66.7115 40.0968C67.5452 40.2301 68.396 40.2343 69.2511 40.1301C70.1062 40.0343 70.9656 39.8344 71.8465 39.6219C72.7274 39.4136 73.6341 39.1886 74.5751 39.0553C75.5162 38.9179 76.4959 38.8762 77.467 38.9762C77.9569 39.0303 78.421 39.1053 78.8808 39.197C79.3448 39.2886 79.8046 39.3969 80.2644 39.5261C81.1797 39.7802 82.0821 40.1551 82.9114 40.5884C83.3239 40.8008 83.7192 41.0258 84.0931 41.2049C84.4712 41.3882 84.8322 41.5215 85.2103 41.6049C85.5884 41.684 85.9881 41.7173 86.392 41.709C86.783 41.7007 87.174 41.6423 87.5479 41.534C88.2955 41.3174 88.9874 40.9008 89.5761 40.3593C90.1691 39.8177 90.6632 39.1512 91.0543 38.4346C91.4453 37.7139 91.7375 36.9349 91.9223 36.1392C92.1027 35.3477 92.1758 34.527 92.064 33.7688C92.0125 33.3897 91.9051 33.0356 91.7504 32.7357C91.5871 32.4315 91.398 32.2274 91.1015 32.04C90.5085 31.665 89.6534 31.4692 88.794 31.3151C87.0537 31.011 85.1759 30.8193 83.3539 30.2153C82.443 29.9195 81.5535 29.5196 80.7328 28.9905C79.912 28.4656 79.1773 27.8074 78.5628 27.0659C78.2534 26.6951 77.9784 26.3035 77.7291 25.8994C77.6045 25.6953 77.4885 25.4912 77.3768 25.2829L77.0674 24.6705C76.6678 23.854 76.3111 23.0208 75.9803 22.1834C75.3185 20.5129 74.7943 18.8174 74.0939 17.251C73.402 15.6805 72.4653 14.264 71.1676 13.1601C69.8828 12.0436 68.3229 11.2104 66.69 10.5439L65.9295 10.2689L66.4924 9.63989C66.9479 9.13165 67.326 8.56093 67.6311 7.95271C67.9362 7.34032 68.1639 6.6946 68.3401 6.03222C68.512 5.36567 68.628 4.68664 68.6839 4.0076C68.714 3.66599 68.7269 3.32856 68.7269 2.99528C68.7269 2.82865 68.7182 2.66201 68.7054 2.50787C68.6925 2.3579 68.671 2.1871 68.6495 2.12461L70.2824 2.60369C69.3671 3.48686 68.3788 4.29921 67.3217 5.01158C66.2689 5.72812 65.156 6.35299 64.0173 6.90706C61.7442 8.01936 59.3894 8.84004 57.0991 9.69822C54.8088 10.5522 52.57 11.4521 50.4601 12.5685C49.3988 13.1184 48.3804 13.7308 47.392 14.389C46.3994 15.0431 45.4584 15.7638 44.5517 16.522C42.7427 18.0467 41.0711 19.7547 39.5929 21.5835C38.1577 23.3707 37.0792 25.4537 36.353 27.6324C35.6225 29.8154 35.2443 32.1108 35.2443 34.402C35.2443 36.6933 35.6311 38.9845 36.3873 41.1549C37.1393 43.3296 38.2823 45.3667 39.6918 47.2247C41.1356 49.0993 42.747 50.8823 44.3927 52.6528C47.6929 56.1814 51.0918 59.714 54.0482 63.63C55.522 65.588 56.8842 67.6376 58.0487 69.7997C59.2089 71.9618 60.18 74.2281 60.8762 76.5776C61.2242 77.7524 61.4992 78.948 61.6926 80.152C61.8731 81.3601 62.002 82.5765 62.0278 83.793C62.0965 86.2258 61.843 88.6546 61.2543 90.9916C61.2715 88.5837 61.1984 86.2092 60.9148 83.8679C60.7687 82.6973 60.5883 81.535 60.3347 80.3894C60.0898 79.2396 59.7933 78.1065 59.4452 76.9859C58.7491 74.7446 57.7909 72.5825 56.6436 70.5162C55.4963 68.4499 54.1513 66.4836 52.6946 64.5965C49.7726 60.8138 46.3607 57.3936 43.0305 53.8401C41.3676 52.0613 39.7132 50.2533 38.1964 48.2995C36.6709 46.3082 35.4205 44.1044 34.5912 41.7382C33.7576 39.3803 33.3364 36.8849 33.3364 34.3937C33.3364 31.9025 33.7404 29.4154 34.531 27.0492C35.3217 24.683 36.4862 22.4209 38.0804 20.4254C39.6445 18.4924 41.3805 16.7094 43.297 15.0931C44.2552 14.2932 45.2564 13.5267 46.3049 12.8351C47.3491 12.1353 48.4319 11.4896 49.5449 10.9063C51.7664 9.72738 54.0997 8.79422 56.4115 7.92771C58.7233 7.05704 61.018 6.24885 63.1536 5.20321C65.2892 4.1659 67.2487 2.86614 68.9245 1.2581L70.2394 0L70.5531 1.73717C70.6004 2.03295 70.5961 2.22875 70.5961 2.44121C70.5961 2.64951 70.5832 2.84948 70.566 3.04527C70.5316 3.44103 70.48 3.8243 70.4156 4.20756C70.2824 4.96992 70.0847 5.71978 69.8226 6.44881C69.5605 7.17784 69.2339 7.89021 68.8214 8.56092C68.4132 9.23163 67.9147 9.85653 67.326 10.4023L67.1283 9.49825C68.8515 10.1648 70.5574 11.0063 72.0098 12.2311C73.4751 13.4392 74.5665 15.0597 75.3185 16.7178C76.0877 18.38 76.6291 20.0671 77.2951 21.6835C77.626 22.4917 77.9784 23.2832 78.3651 24.0581C78.5628 24.4497 78.7518 24.8246 78.971 25.1704C79.1901 25.5245 79.4308 25.8577 79.6929 26.1744C80.7414 27.4491 82.1938 28.3448 83.8267 28.8614C85.4638 29.3988 87.2299 29.5821 89.069 29.8945C89.5288 29.9778 89.9972 30.0695 90.4742 30.2111C90.9511 30.3486 91.441 30.5277 91.9137 30.8235C92.15 30.9693 92.3735 31.1485 92.5797 31.3651C92.7817 31.5817 92.9407 31.8192 93.0739 32.0608C93.3317 32.5482 93.4692 33.0564 93.5423 33.548C93.6841 34.5437 93.5895 35.506 93.3876 36.435C93.177 37.364 92.8333 38.2555 92.3735 39.0928C91.9094 39.9302 91.325 40.7134 90.5945 41.3799C89.864 42.0464 88.9659 42.588 87.969 42.8713C87.4706 43.0129 86.9506 43.0879 86.4306 43.0962C85.9236 43.1046 85.4123 43.0629 84.9009 42.9505C84.3896 42.838 83.8997 42.6463 83.4657 42.4339C83.0274 42.2214 82.6364 41.9965 82.2453 41.7923C81.4762 41.3841 80.6984 41.0633 79.8647 40.8175C79.4522 40.6967 79.0269 40.5926 78.6014 40.5009C78.1717 40.4093 77.7378 40.3343 77.3252 40.2843C76.483 40.1926 75.6322 40.2135 74.7771 40.3301C73.9177 40.4426 73.054 40.6425 72.1645 40.8467C71.275 41.0466 70.3597 41.2549 69.4058 41.3507C68.4561 41.4549 67.4678 41.4424 66.5053 41.2799C64.5802 40.9383 62.827 40.101 61.3402 38.9095C60.6012 38.3096 59.9695 37.5806 59.4581 36.7933C58.9425 36.0017 58.5901 35.131 58.3495 34.2437C57.9069 32.4607 57.9413 30.5985 58.4698 28.8947" fill="#BB8B5E"/>
<path d="M52.8922 10.0315C51.8609 10.4981 50.791 10.8647 49.7253 11.223C49.1925 11.3979 48.6597 11.577 48.1225 11.7479L46.524 12.2603C44.3927 12.9393 42.2872 13.6683 40.2547 14.5557C36.1983 16.322 32.4083 18.6758 29.3531 21.7544C27.8276 23.2874 26.4827 24.9871 25.3525 26.8076C24.2224 28.6323 23.3028 30.5777 22.5723 32.5899C22.2114 33.598 21.8977 34.6228 21.6227 35.656C21.3606 36.6933 21.1285 37.7389 20.9438 38.7929C20.5699 40.9008 20.3851 43.0379 20.209 45.2126C19.848 49.5451 19.6203 53.9193 19.1949 58.2976C18.9843 60.4847 18.7093 62.676 18.3483 64.8548C18.1679 65.9462 17.9659 67.0336 17.7253 68.1167C17.4804 69.1998 17.2096 70.2746 16.9002 71.3453C16.2772 73.4824 15.5381 75.5986 14.5584 77.6149C14.0728 78.6273 13.5357 79.6146 12.9427 80.5727C12.3454 81.5267 11.6879 82.4516 10.9789 83.3264C9.55661 85.0844 7.88505 86.6508 6.02443 87.938C5.09627 88.5879 4.11656 89.1586 3.11105 89.6669C2.10554 90.1751 1.06567 90.6209 0 90.9875C1.00551 90.4876 1.98523 89.9502 2.92198 89.3544C3.85874 88.7587 4.74821 88.1047 5.59903 87.409C7.29206 86.0092 8.77884 84.4054 10.0336 82.6474C12.5473 79.123 14.163 75.0779 15.2416 70.9162C15.5123 69.8747 15.7444 68.8207 15.9549 67.7626C16.1698 66.7044 16.3631 65.6421 16.5264 64.5757C16.8573 62.4386 17.1022 60.2848 17.3128 58.1227C17.7339 53.7985 17.9315 49.4409 18.271 45.0626C18.3655 43.9669 18.4558 42.8755 18.5976 41.7715C18.7265 40.6675 18.9113 39.5678 19.1218 38.4721C19.3367 37.3765 19.5988 36.2892 19.8953 35.2102C20.2047 34.1354 20.5527 33.0689 20.9523 32.0191C21.7602 29.9237 22.7657 27.8949 23.9946 25.9952C25.2279 24.0998 26.676 22.3334 28.3175 20.7587C29.9589 19.184 31.7809 17.7968 33.7189 16.6011C35.6611 15.4097 37.7194 14.4224 39.825 13.5809C41.9348 12.7477 44.0962 12.0478 46.2791 11.4687C48.4663 10.8855 50.675 10.4648 52.8922 10.0273" fill="#BB8B5E"/>
<path d="M47.3233 47.2789C47.3834 47.8288 47.551 48.3495 47.783 48.8411C48.0108 49.3327 48.2987 49.7951 48.6124 50.2408C49.2398 51.1282 49.9703 51.953 50.7351 52.7445C51.4957 53.5402 52.2864 54.3151 53.0942 55.0733C53.9063 55.8315 54.7142 56.598 55.5349 57.3479C58.8222 60.3598 62.1008 63.4384 65.0786 66.817C66.5611 68.5125 67.9791 70.2663 69.2597 72.1285C70.5359 73.9865 71.7004 75.932 72.6328 77.9857C73.1012 79.0106 73.5395 80.0478 73.8919 81.1185C74.2442 82.185 74.5407 83.2681 74.7685 84.3637C75.2111 86.5592 75.3614 88.8004 75.1552 91C74.747 86.6008 73.3504 82.4349 71.2664 78.6315C69.1823 74.8238 66.4967 71.3494 63.5962 68.0459C60.6914 64.7382 57.533 61.6179 54.4521 58.381C52.9094 56.7646 51.384 55.1108 50.0003 53.3361C49.6609 52.8862 49.3257 52.4321 49.0163 51.9613C48.7026 51.4948 48.4018 51.0115 48.1483 50.5074C47.8905 50.0034 47.6627 49.4868 47.5037 48.9411C47.3534 48.3995 47.2674 47.8329 47.319 47.283" fill="#BB8B5E"/>
<path d="M58.4612 32.0732C57.7221 32.1649 56.9658 32.344 56.2439 32.5814C55.5177 32.8106 54.8216 33.1147 54.1512 33.4563C53.4895 33.8104 52.8449 34.202 52.2691 34.6686C51.6847 35.1268 51.139 35.6351 50.6621 36.2016C50.1679 36.7557 49.7511 37.3764 49.3815 38.0221C49.0034 38.6678 48.6897 39.3552 48.4276 40.0676C47.8948 41.4923 47.5811 43.017 47.3275 44.5792C47.0912 43.017 47.1127 41.3923 47.4608 39.8051C47.8002 38.2179 48.4921 36.664 49.5234 35.3268C50.0519 34.6686 50.6492 34.0562 51.3152 33.5271C51.9898 33.0064 52.7117 32.5439 53.4895 32.1898C54.2587 31.8274 55.0708 31.5525 55.9044 31.3692C56.7381 31.1984 57.5889 31.0901 58.4612 31.1692V32.069V32.0732Z" fill="#BB8B5E"/>
</svg>
