<svg width="30" height="29" viewBox="0 0 30 29" fill="none" xmlns="http://www.w3.org/2000/svg">
<path d="M8.73738 0C4.2891 0 0.681824 3.60728 0.681824 8.05556V20.9444C0.681824 25.3927 4.2891 29 8.73738 29H21.6263C26.0745 29 29.6818 25.3927 29.6818 20.9444V8.05556C29.6818 3.60728 26.0745 0 21.6263 0H8.73738ZM24.8485 3.22222C25.7378 3.22222 26.4596 3.944 26.4596 4.83333C26.4596 5.72267 25.7378 6.44444 24.8485 6.44444C23.9592 6.44444 23.2374 5.72267 23.2374 4.83333C23.2374 3.944 23.9592 3.22222 24.8485 3.22222ZM15.1818 6.44444C19.6301 6.44444 23.2374 10.0517 23.2374 14.5C23.2374 18.9483 19.6301 22.5556 15.1818 22.5556C10.7335 22.5556 7.12627 18.9483 7.12627 14.5C7.12627 10.0517 10.7335 6.44444 15.1818 6.44444ZM15.1818 9.66667C13.8999 9.66667 12.6706 10.1759 11.7641 11.0823C10.8577 11.9887 10.3485 13.2181 10.3485 14.5C10.3485 15.7819 10.8577 17.0113 11.7641 17.9177C12.6706 18.8241 13.8999 19.3333 15.1818 19.3333C16.4637 19.3333 17.6931 18.8241 18.5995 17.9177C19.5059 17.0113 20.0152 15.7819 20.0152 14.5C20.0152 13.2181 19.5059 11.9887 18.5995 11.0823C17.6931 10.1759 16.4637 9.66667 15.1818 9.66667Z" fill="white"/>
</svg>
